<svg width="177" height="31" viewBox="0 0 177 31" fill="none" xmlns="http://www.w3.org/2000/svg">
<g clip-path="url(#clip0_74_21)">
<path d="M120.93 12.662H108.489L110.557 7.80823C111.412 5.69789 112.112 5.00147 113.403 5.00147C114.694 5.00147 115.129 6.47871 114.429 8.2936H127.197L128.488 5.00147C129.437 2.57458 129.437 0.0210741 127.104 0.0210741H104.554C102.486 -2.92407e-05 100.931 0.358728 99.7175 3.16548L95.7518 12.7675C94.6321 15.5743 94.7254 17.7479 97.478 17.7479H110.417L108.255 22.9816C107.988 23.7764 107.544 24.4388 106.987 24.8773C106.43 25.3157 105.786 25.5087 105.145 25.4296C103.59 25.4296 103.683 23.9523 104.367 22.4962H91.755L90.1999 26.0205C89.2512 28.3418 90.0288 30.2411 92.2682 30.2411H114.554C115.524 30.269 116.482 29.9455 117.33 29.3037C118.177 28.662 118.883 27.7254 119.375 26.5902L123.169 17.6424C124.025 15.321 123.605 12.6409 120.93 12.6409V12.662ZM92.0505 -2.92426e-05H72.9064C70.3248 -2.92426e-05 66.8723 -2.93553e-05 64.8972 4.98037L56.4527 25.324C55.2396 28.1097 56.1883 30.3044 58.4277 30.3044H80.7444C83.0772 30.3044 84.4613 29.3337 86.2653 25.324L94.7098 4.98037C95.7518 2.32134 94.1033 -2.92426e-05 92.0505 -2.92426e-05ZM81.2732 7.6605L74.897 22.876C74.0261 24.9864 73.2485 25.3029 71.3512 25.3029C69.4539 25.3029 68.8629 24.3322 69.4539 22.876L75.9234 7.6605C76.2374 6.74094 76.7557 5.97785 77.4056 5.47827C78.0554 4.97869 78.8042 4.76768 79.5469 4.87485C81.1021 4.87485 82.1285 5.71899 81.2732 7.6605ZM58.521 -2.92426e-05H33.9649L23.3275 25.324H0V30.3044H47.1527C48.1436 30.4102 49.1347 30.1058 49.9954 29.4314C50.8562 28.757 51.5459 27.7443 51.9738 26.5269L54.4309 20.3014C54.6314 19.9462 54.7732 19.5367 54.8469 19.1007C54.9206 18.6646 54.9244 18.2122 54.8581 17.774C54.7917 17.3357 54.6567 16.922 54.4623 16.5607C54.2679 16.1994 54.0185 15.899 53.7311 15.6798C54.641 15.5629 55.514 15.1334 56.2676 14.4319C57.0213 13.7304 57.6309 12.7799 58.0389 11.6701L60.6516 5.59237C60.9755 5.07879 61.179 4.44581 61.2363 3.77438C61.2936 3.10294 61.2021 2.42358 60.9733 1.82315C60.7446 1.22272 60.389 0.728527 59.9522 0.403754C59.5154 0.0789807 59.0171 -0.0616062 58.521 -2.92426e-05ZM45.9397 20.4281L44.6489 23.3614C44.4626 24.0133 44.1291 24.5686 43.6961 24.9476C43.2632 25.3267 42.7529 25.5102 42.2384 25.4718H35.94L39.1281 17.7901H45.2554C46.3752 17.6424 46.3752 19.0985 45.9397 20.4281ZM51.1962 7.76602L49.9054 10.5517C49.7191 11.2036 49.3856 11.7588 48.9526 12.1379C48.5196 12.5169 48.0094 12.7004 47.4949 12.662H41.1964L44.3845 5.00147H50.5119C51.7094 5.00147 51.7094 6.45761 51.1962 7.68161V7.76602Z" fill="black"/>
<path d="M145.051 4.9804H176.854V0H134.538L121.956 30.41H151.505L153.666 25.4296H136.699L139.81 17.748H156.699L158.767 12.7676H142.034L145.051 4.9804Z" fill="black"/>
</g>
<defs>
<clipPath id="clip0_74_21">
<rect width="176.854" height="30.41" fill="white"/>
</clipPath>
</defs>
</svg>
