<svg width="335" height="337" viewBox="0 0 335 337" fill="none" xmlns="http://www.w3.org/2000/svg">
<rect x="0.29386" y="0.469153" width="334.412" height="335.588" rx="17.3377" fill="#F2F0E6" stroke="black" stroke-width="0.587719"/>
<path d="M169.534 149.629L134.244 281.333L265.948 316.624" stroke="url(#paint0_linear_108_183)" stroke-width="1.17544" stroke-linejoin="round" stroke-dasharray="2.35 2.35"/>
<path d="M177.694 287.641C176.265 287.992 174 287.385 172.938 286.366C172.247 285.704 171.384 285.201 170.394 284.936C167.259 284.095 164.036 285.956 163.196 289.091C162.356 292.227 164.216 295.449 167.352 296.289C168.342 296.555 169.34 296.551 170.27 296.322C171.699 295.971 173.964 296.578 175.026 297.597C175.717 298.259 176.58 298.762 177.57 299.027C180.705 299.868 183.928 298.007 184.768 294.872C185.608 291.736 183.748 288.514 180.612 287.674C179.622 287.408 178.624 287.412 177.694 287.641Z" fill="#6555DF"/>
<circle cx="235.861" cy="308.562" r="5.28947" transform="rotate(-75 235.861 308.562)" fill="#FF8484"/>
<path opacity="0.8" d="M61.1092 179.597C64.232 180.433 67.0387 181.861 69.4412 183.727C71.1993 185.093 73.4661 185.7 75.6715 185.396C78.6851 184.982 81.8296 185.149 84.9524 185.985C88.23 186.864 91.1594 188.393 93.6386 190.397C95.468 191.875 97.8792 192.521 100.203 192.155C103.352 191.66 106.653 191.8 109.931 192.678C122.472 196.039 129.914 208.929 126.554 221.471C123.194 234.012 110.303 241.454 97.7618 238.094C94.4842 237.215 91.5548 235.686 89.0756 233.683C87.2462 232.204 84.835 231.558 82.5115 231.924C79.3625 232.419 76.061 232.279 72.7833 231.401C69.6605 230.564 66.8539 229.136 64.4514 227.27C62.6933 225.905 60.4264 225.297 58.2211 225.601C55.2075 226.016 52.063 225.849 48.9402 225.012C36.3991 221.652 28.9566 208.761 32.317 196.22C35.6774 183.679 48.5681 176.236 61.1092 179.597Z" fill="black"/>
<path d="M258.68 79.2056L327.371 97.6112" stroke="url(#paint1_linear_108_183)" stroke-width="1.17544" stroke-linejoin="round" stroke-dasharray="2.35 2.35"/>
<circle cx="283.942" cy="85.9746" r="5.87719" transform="rotate(-75 283.942 85.9746)" fill="#FF8484"/>
<circle cx="309.488" cy="92.8198" r="2.9386" transform="rotate(-75 309.488 92.8198)" fill="#FF8484"/>
<circle cx="111.324" cy="262.415" r="2.9386" transform="rotate(-75 111.324 262.415)" fill="#CDA5FF"/>
<circle cx="29.4684" cy="77.4168" r="7.05263" transform="rotate(-75 29.4684 77.4168)" fill="#FF8484"/>
<circle cx="100.596" cy="52.667" r="2.9386" transform="rotate(-75 100.596 52.667)" fill="#6555DF"/>
<rect x="28.5833" y="198.8" width="139.877" height="260.947" rx="11.7544" transform="rotate(-75 28.5833 198.8)" fill="url(#paint2_linear_108_183)"/>
<path fill-rule="evenodd" clip-rule="evenodd" d="M218.451 127.985L199.15 122.813L204.93 101.24L305.493 128.186C311.764 129.866 315.485 136.312 313.805 142.582L283.686 254.986C282.006 261.256 275.561 264.977 269.29 263.297L207.33 246.695L222.693 189.358L203.392 184.186L208.26 166.02L227.561 171.192L232.733 151.89L213.431 146.718L218.451 127.985ZM213.279 147.286L208.26 166.02L188.958 160.848L193.978 142.114L213.279 147.286ZM168.727 236.351L168.727 236.351L188.028 241.523L188.028 241.523L168.727 236.351ZM207.33 246.695L212.502 227.393L231.803 232.565L226.632 251.867L207.33 246.695ZM232.355 182.82L227.183 202.122L246.485 207.293L251.657 187.992L232.355 182.82ZM268.867 232.761L274.038 213.46L293.34 218.631L288.168 237.933L268.867 232.761ZM262.631 128.87L257.459 148.172L276.76 153.344L281.932 134.042L262.631 128.87Z" fill="#F2F0E3"/>
<path d="M64.4426 178.374L64.8776 176.75L60.7335 175.64L61.0255 174.55L65.766 170.21L67.4918 170.672L66.0194 176.168L67.3818 176.533L67.1598 177.362L65.7973 176.996L65.3622 178.62L64.4426 178.374ZM61.8752 175.057L65.0997 175.921L66.4231 170.982L66.2641 170.94L61.9117 174.921L61.8752 175.057ZM71.1369 180.167L73.1022 172.833L72.9319 172.787L70.6303 175.201L69.6311 174.933L72.449 172.001L74.1862 172.466L72.0566 180.414L71.1369 180.167ZM78.948 182.26L79.3831 180.637L75.2389 179.526L75.531 178.436L80.2715 174.097L81.9973 174.559L80.5248 180.054L81.8873 180.419L81.6652 181.248L80.3027 180.883L79.8677 182.507L78.948 182.26ZM76.3807 178.944L79.6052 179.808L80.9285 174.869L80.7696 174.826L76.4172 178.808L76.3807 178.944ZM84.3726 183.714L84.4487 183.43C84.5197 183.165 84.6022 182.948 84.6963 182.778C84.7904 182.609 84.9352 182.417 85.1308 182.201L89.6074 177.62L89.6408 177.496L84.9176 176.23L85.1397 175.401L90.828 176.925L90.536 178.015L85.8471 182.843C85.7137 182.978 85.6108 183.105 85.5385 183.223C85.4737 183.344 85.415 183.502 85.3622 183.699L85.2923 183.96L84.3726 183.714ZM102.804 188.823C102.191 188.659 101.682 188.425 101.276 188.122C100.88 187.813 100.602 187.458 100.442 187.058C100.291 186.653 100.276 186.223 100.398 185.769L100.431 185.644C100.537 185.25 100.707 184.947 100.943 184.734C101.178 184.522 101.431 184.379 101.703 184.305C101.983 184.226 102.231 184.195 102.445 184.212L102.485 184.065C102.297 183.949 102.111 183.794 101.928 183.599C101.753 183.406 101.625 183.173 101.544 182.9C101.47 182.629 101.479 182.323 101.571 181.982L101.604 181.857C101.72 181.426 101.939 181.091 102.262 180.853C102.595 180.61 103 180.463 103.476 180.412C103.952 180.361 104.466 180.409 105.019 180.557C105.579 180.707 106.049 180.923 106.428 181.203C106.815 181.485 107.088 181.813 107.247 182.189C107.416 182.558 107.442 182.959 107.326 183.39L107.293 183.515C107.202 183.856 107.056 184.125 106.857 184.323C106.658 184.522 106.434 184.66 106.186 184.74C105.938 184.819 105.699 184.861 105.471 184.865L105.432 185.012C105.633 185.107 105.832 185.258 106.028 185.464C106.227 185.663 106.371 185.913 106.461 186.213C106.558 186.515 106.554 186.863 106.449 187.256L106.415 187.381C106.294 187.835 106.066 188.2 105.733 188.476C105.401 188.744 104.983 188.912 104.478 188.979C103.983 189.041 103.425 188.989 102.804 188.823ZM103.026 187.994C103.67 188.167 104.21 188.178 104.648 188.027C105.093 187.879 105.38 187.566 105.508 187.089L105.532 186.998C105.66 186.522 105.572 186.109 105.268 185.759C104.964 185.41 104.486 185.148 103.836 184.974C103.192 184.802 102.652 184.791 102.214 184.941C101.776 185.091 101.493 185.405 101.365 185.882L101.341 185.973C101.213 186.45 101.301 186.863 101.605 187.212C101.917 187.563 102.39 187.824 103.026 187.994ZM104.058 184.145C104.663 184.307 105.167 184.321 105.568 184.185C105.979 184.044 106.241 183.761 106.355 183.337L106.379 183.246C106.495 182.815 106.409 182.439 106.122 182.118C105.836 181.791 105.395 181.546 104.797 181.386C104.199 181.226 103.694 181.217 103.283 181.358C102.874 181.492 102.612 181.774 102.496 182.206L102.472 182.297C102.358 182.72 102.444 183.096 102.73 183.424C103.017 183.745 103.46 183.985 104.058 184.145ZM108.467 190.17L108.69 189.341C108.842 188.774 109.062 188.346 109.35 188.058C109.645 187.772 109.999 187.575 110.409 187.466C110.829 187.351 111.309 187.285 111.849 187.267L112.526 187.242C112.895 187.227 113.228 187.178 113.526 187.096C113.826 187.006 114.079 186.863 114.286 186.667C114.495 186.463 114.646 186.187 114.739 185.839L114.751 185.794C114.885 185.294 114.816 184.854 114.545 184.473C114.276 184.084 113.869 183.817 113.324 183.671C112.749 183.517 112.238 183.546 111.792 183.759C111.347 183.965 111.042 184.378 110.875 184.999L110.833 185.157L109.924 184.914L109.964 184.766C110.118 184.191 110.374 183.736 110.731 183.402C111.088 183.068 111.51 182.856 111.996 182.768C112.485 182.671 113.001 182.696 113.546 182.842C114.091 182.988 114.544 183.219 114.906 183.535C115.275 183.853 115.528 184.225 115.666 184.651C115.803 185.078 115.807 185.533 115.677 186.017L115.649 186.12C115.512 186.634 115.295 187.035 114.999 187.32C114.706 187.599 114.349 187.795 113.929 187.91C113.516 188.026 113.047 188.095 112.522 188.117L111.857 188.146C111.439 188.163 111.083 188.206 110.789 188.273C110.505 188.335 110.271 188.451 110.087 188.621C109.904 188.79 109.766 189.05 109.672 189.398L109.621 189.591L114.31 190.847L114.088 191.676L108.467 190.17ZM119.536 193.306C118.976 193.156 118.501 192.915 118.111 192.584C117.729 192.254 117.463 191.854 117.313 191.384C117.171 190.916 117.176 190.398 117.328 189.831L117.386 189.615L118.305 189.861L118.251 190.066C118.094 190.648 118.157 191.156 118.439 191.588C118.72 192.021 119.16 192.317 119.758 192.477C120.364 192.64 120.875 192.61 121.291 192.389C121.717 192.163 121.993 191.811 122.121 191.334L122.146 191.243C122.239 190.895 122.231 190.593 122.121 190.336C122.013 190.072 121.829 189.852 121.567 189.677C121.316 189.496 121.02 189.359 120.679 189.268L119.385 188.921L119.692 187.775L123.244 186.645L123.28 186.509L118.75 185.295L118.972 184.466L124.479 185.942L124.135 187.225L120.66 188.338L120.624 188.475L121.192 188.627C121.638 188.746 122.025 188.939 122.351 189.205C122.687 189.465 122.921 189.788 123.053 190.172C123.195 190.551 123.201 190.982 123.071 191.467L123.038 191.592C122.904 192.091 122.67 192.495 122.336 192.803C122.002 193.111 121.596 193.311 121.117 193.401C120.638 193.492 120.111 193.46 119.536 193.306ZM132.336 196.736C131.791 196.59 131.331 196.353 130.956 196.026C130.591 195.693 130.338 195.292 130.195 194.824C130.061 194.358 130.067 193.848 130.215 193.296L130.958 190.526C131.118 189.928 131.371 189.452 131.717 189.098C132.064 188.745 132.478 188.515 132.961 188.409C133.453 188.298 133.994 188.321 134.585 188.48C135.168 188.636 135.635 188.875 135.987 189.196C136.348 189.512 136.587 189.88 136.701 190.3C136.825 190.715 136.825 191.157 136.699 191.626L135.768 191.376C135.894 190.907 135.844 190.488 135.618 190.119C135.394 189.743 134.976 189.473 134.363 189.308C133.742 189.142 133.216 189.184 132.784 189.433C132.354 189.675 132.06 190.091 131.902 190.681L131.607 191.783L131.766 191.825C131.963 191.635 132.246 191.487 132.614 191.383C132.985 191.272 133.454 191.292 134.022 191.444C134.499 191.572 134.905 191.794 135.242 192.112C135.579 192.429 135.813 192.812 135.944 193.261C136.075 193.71 136.07 194.199 135.928 194.729L135.892 194.866C135.748 195.403 135.498 195.835 135.143 196.162C134.795 196.49 134.376 196.707 133.886 196.811C133.398 196.907 132.881 196.882 132.336 196.736ZM132.558 195.907C133.133 196.061 133.642 196.023 134.085 195.793C134.528 195.563 134.825 195.168 134.975 194.608L134.999 194.517C135.101 194.138 135.105 193.791 135.011 193.474C134.925 193.158 134.759 192.887 134.512 192.658C134.267 192.422 133.951 192.252 133.565 192.149C133.187 192.048 132.832 192.038 132.502 192.12C132.174 192.194 131.89 192.345 131.65 192.573C131.418 192.803 131.252 193.107 131.15 193.486L131.126 193.576C130.976 194.137 131.035 194.627 131.304 195.048C131.572 195.469 131.99 195.755 132.558 195.907ZM141.794 199.1L142.229 197.476L138.085 196.366L138.377 195.276L143.118 190.936L144.844 191.399L143.371 196.894L144.734 197.259L144.512 198.088L143.149 197.723L142.714 199.346L141.794 199.1ZM139.227 195.784L142.451 196.648L143.775 191.709L143.616 191.666L139.263 195.647L139.227 195.784ZM149.257 201.27C148.697 201.12 148.222 200.879 147.832 200.547C147.45 200.218 147.183 199.818 147.034 199.348C146.891 198.88 146.896 198.362 147.048 197.794L147.106 197.578L148.026 197.825L147.971 198.029C147.815 198.612 147.878 199.12 148.159 199.552C148.441 199.985 148.881 200.281 149.479 200.441C150.084 200.603 150.595 200.574 151.011 200.353C151.437 200.126 151.714 199.774 151.842 199.298L151.866 199.207C151.959 198.859 151.951 198.556 151.841 198.3C151.734 198.035 151.549 197.816 151.288 197.64C151.036 197.459 150.74 197.323 150.4 197.232L149.105 196.885L149.412 195.738L152.964 194.609L153.001 194.473L148.47 193.259L148.693 192.43L154.199 193.906L153.855 195.189L150.381 196.302L150.344 196.438L150.912 196.59C151.359 196.71 151.745 196.903 152.071 197.169C152.407 197.429 152.641 197.751 152.774 198.136C152.916 198.514 152.922 198.946 152.792 199.43L152.758 199.555C152.624 200.055 152.391 200.459 152.057 200.767C151.722 201.075 151.316 201.274 150.838 201.365C150.359 201.456 149.832 201.424 149.257 201.27ZM158.695 203.628L159.13 202.005L154.986 200.894L155.278 199.804L160.018 195.465L161.744 195.927L160.272 201.422L161.634 201.788L161.412 202.616L160.049 202.251L159.614 203.875L158.695 203.628ZM156.127 200.312L159.352 201.176L160.675 196.237L160.516 196.195L156.164 200.176L156.127 200.312ZM179.424 209.353C178.811 209.189 178.302 208.955 177.896 208.652C177.5 208.343 177.222 207.988 177.062 207.589C176.911 207.183 176.896 206.753 177.018 206.299L177.051 206.174C177.157 205.78 177.327 205.477 177.563 205.265C177.798 205.052 178.051 204.909 178.323 204.835C178.603 204.757 178.851 204.726 179.065 204.742L179.105 204.595C178.917 204.48 178.731 204.324 178.548 204.129C178.373 203.936 178.245 203.703 178.164 203.43C178.09 203.159 178.099 202.853 178.191 202.512L178.224 202.387C178.34 201.956 178.559 201.621 178.882 201.383C179.215 201.14 179.62 200.993 180.096 200.942C180.572 200.891 181.086 200.94 181.639 201.088C182.199 201.238 182.669 201.453 183.048 201.733C183.435 202.015 183.708 202.344 183.867 202.719C184.035 203.089 184.062 203.489 183.946 203.921L183.913 204.046C183.822 204.386 183.676 204.656 183.477 204.854C183.278 205.052 183.054 205.191 182.806 205.27C182.558 205.35 182.319 205.391 182.091 205.395L182.052 205.543C182.253 205.637 182.452 205.788 182.648 205.995C182.847 206.194 182.991 206.443 183.081 206.743C183.178 207.045 183.174 207.393 183.069 207.786L183.035 207.911C182.914 208.366 182.686 208.73 182.353 209.006C182.021 209.274 181.603 209.442 181.098 209.51C180.603 209.572 180.045 209.52 179.424 209.353ZM179.646 208.524C180.29 208.697 180.83 208.708 181.268 208.557C181.713 208.409 182 208.096 182.128 207.62L182.152 207.529C182.28 207.052 182.192 206.639 181.888 206.29C181.584 205.941 181.106 205.679 180.455 205.504C179.812 205.332 179.271 205.321 178.834 205.471C178.396 205.622 178.113 205.935 177.985 206.412L177.961 206.503C177.833 206.98 177.921 207.393 178.225 207.742C178.537 208.093 179.01 208.354 179.646 208.524ZM180.678 204.675C181.283 204.838 181.787 204.851 182.188 204.715C182.599 204.574 182.861 204.291 182.975 203.867L182.999 203.776C183.115 203.345 183.029 202.969 182.742 202.649C182.456 202.321 182.015 202.077 181.417 201.916C180.819 201.756 180.314 201.747 179.903 201.888C179.494 202.022 179.232 202.305 179.116 202.736L179.092 202.827C178.978 203.251 179.064 203.627 179.35 203.955C179.637 204.275 180.08 204.515 180.678 204.675ZM240.588 225.742C240.028 225.592 239.553 225.351 239.163 225.02C238.781 224.69 238.515 224.29 238.365 223.82C238.223 223.352 238.228 222.834 238.38 222.266L238.438 222.051L239.357 222.297L239.303 222.501C239.147 223.084 239.209 223.592 239.491 224.024C239.773 224.457 240.212 224.753 240.81 224.913C241.416 225.076 241.927 225.046 242.343 224.825C242.769 224.598 243.046 224.247 243.173 223.77L243.198 223.679C243.291 223.331 243.283 223.028 243.173 222.772C243.065 222.508 242.881 222.288 242.62 222.112C242.368 221.931 242.072 221.795 241.731 221.704L240.437 221.357L240.744 220.21L244.296 219.081L244.332 218.945L239.802 217.731L240.024 216.902L245.531 218.378L245.187 219.661L241.713 220.774L241.676 220.91L242.244 221.063C242.69 221.182 243.077 221.375 243.403 221.641C243.739 221.901 243.973 222.224 244.105 222.608C244.247 222.987 244.253 223.418 244.123 223.903L244.09 224.028C243.956 224.527 243.722 224.931 243.388 225.239C243.054 225.547 242.648 225.746 242.169 225.837C241.691 225.928 241.164 225.896 240.588 225.742Z" fill="black"/>
<path d="M76.4275 106.532L72.8257 119.975C72.5388 121.051 72.6905 122.197 73.2474 123.162C73.8043 124.126 74.7211 124.831 75.7966 125.12L89.2388 128.722C90.3187 129.01 91.4684 128.857 92.4361 128.299C93.4039 127.74 94.1107 126.82 94.4017 125.741L98.0035 112.299C98.2904 111.223 98.1387 110.077 97.5818 109.112C97.0249 108.148 96.1081 107.443 95.0326 107.153L81.5904 103.552C80.5105 103.264 79.3608 103.417 78.3931 103.975C77.4253 104.534 76.7185 105.454 76.4275 106.532ZM75.2542 116.305L76.6992 110.912L82.0923 112.357L80.6472 117.75L75.2542 116.305ZM93.7687 122.711L93.0534 125.38C92.8589 126.102 92.3861 126.717 91.7388 127.091C91.0915 127.465 90.3224 127.566 89.6001 127.374L86.9305 126.659L88.3756 121.266L93.7687 122.711ZM95.575 115.969L94.13 121.362L88.7369 119.917L90.182 114.524L95.575 115.969ZM94.6714 108.502C95.3897 108.695 96.002 109.165 96.3739 109.81C96.7459 110.454 96.847 111.219 96.6552 111.938L95.9363 114.621L90.5432 113.176L91.9883 107.783L94.6714 108.502ZM90.64 107.422L85.5823 126.297L76.1578 123.772C75.4391 123.58 74.8263 123.109 74.4543 122.465C74.0822 121.82 73.9814 121.055 74.174 120.336L74.8929 117.653L80.9601 119.279C81.1389 119.326 81.3294 119.301 81.4897 119.209C81.65 119.116 81.767 118.964 81.8149 118.785L85.2469 105.976L90.64 107.422ZM83.8987 105.615L82.4536 111.008L77.0605 109.563L77.7758 106.894C77.9703 106.172 78.4431 105.557 79.0904 105.183C79.7377 104.809 80.5068 104.708 81.2291 104.9L83.8987 105.615Z" fill="black"/>
<defs>
<linearGradient id="paint0_linear_108_183" x1="123.127" y1="218.219" x2="260.359" y2="302.557" gradientUnits="userSpaceOnUse">
<stop stop-color="#FF9822" stop-opacity="0.67"/>
<stop offset="1" stop-color="#FF9822" stop-opacity="0"/>
</linearGradient>
<linearGradient id="paint1_linear_108_183" x1="245.151" y1="75.1395" x2="244.27" y2="79.1816" gradientUnits="userSpaceOnUse">
<stop stop-color="#FC7272"/>
<stop offset="1" stop-color="#FC7272" stop-opacity="0"/>
</linearGradient>
<linearGradient id="paint2_linear_108_183" x1="98.5219" y1="198.8" x2="98.5219" y2="459.747" gradientUnits="userSpaceOnUse">
<stop stop-color="#FFC31F"/>
<stop offset="1" stop-color="#FF7123"/>
</linearGradient>
</defs>
</svg>
