<svg width="348" height="337" viewBox="0 0 348 337" fill="none" xmlns="http://www.w3.org/2000/svg">
<rect width="335" height="336.175" rx="17.6316" fill="#FFC31F"/>
<path d="M335 15.3413C335 7.64726 327.717 2.02514 320.422 4.46953C231.885 34.1346 168.088 117.757 168.088 216.281V336.175H317.368C327.106 336.175 335 328.281 335 318.544V15.3413Z" fill="#FF8484"/>
<rect x="0.29386" y="0.29386" width="334.412" height="335.588" rx="17.3377" stroke="black" stroke-width="0.587719"/>
<rect x="31.7368" y="31.7368" width="271.526" height="272.702" rx="17.6316" fill="url(#paint0_linear_108_150)"/>
<g filter="url(#filter0_d_108_150)">
<circle cx="167.5" cy="183.956" r="91.0965" fill="url(#paint1_linear_108_150)" shape-rendering="crispEdges"/>
</g>
<g filter="url(#filter1_d_108_150)">
<circle cx="167.5" cy="183.956" r="73.4649" fill="url(#paint2_linear_108_150)"/>
</g>
<g filter="url(#filter2_d_108_150)">
<circle cx="167.5" cy="183.956" r="54.6579" fill="url(#paint3_linear_108_150)" shape-rendering="crispEdges"/>
</g>
<path opacity="0.8" d="M143.725 154.493C139.028 154.493 137.029 157.286 137.029 160.047C137.029 162.205 138.267 164.077 140.139 164.902V164.934C137.854 165.791 136.331 167.695 136.331 170.266C136.331 173.344 138.552 176.01 143.725 176.01C148.93 176.01 151.12 173.344 151.12 170.266C151.12 167.79 149.724 165.823 147.343 164.934V164.902C149.47 164.045 150.422 162.046 150.422 160.078C150.422 157.254 148.454 154.493 143.725 154.493ZM140.52 170.012C140.52 168.235 141.885 167.06 143.725 167.06C145.598 167.06 146.931 168.235 146.931 170.012C146.931 171.758 145.63 172.868 143.725 172.868C141.853 172.868 140.52 171.758 140.52 170.012ZM141.06 160.301C141.06 158.714 142.202 157.698 143.725 157.698C145.249 157.698 146.391 158.714 146.391 160.301C146.391 161.919 145.217 162.935 143.725 162.935C142.234 162.935 141.06 161.919 141.06 160.301ZM154.111 172.837V175.693H168.424V171.821H164.235C163.029 171.821 162.33 171.821 161.188 171.853L160.997 171.884C165.218 168.108 168.392 165.156 168.392 161.03C168.392 157.793 166.488 154.429 161.283 154.429C156.808 154.429 153.635 156.936 153.412 161.411L157.538 162.713C157.697 159.856 158.966 158.396 160.997 158.396C162.87 158.396 163.727 159.666 163.727 161.221C163.727 164.49 159.887 167.092 154.111 172.837ZM170.734 160.332C170.734 163.633 173.4 166.299 176.7 166.299C179.969 166.299 182.635 163.633 182.635 160.332C182.635 157.063 179.969 154.397 176.7 154.397C173.4 154.397 170.734 157.063 170.734 160.332ZM174.098 160.332C174.098 158.904 175.272 157.73 176.7 157.73C178.128 157.73 179.334 158.904 179.334 160.332C179.334 161.792 178.128 162.966 176.7 162.966C175.272 162.966 174.098 161.792 174.098 160.332ZM175.304 175.693H179.144L193.521 154.715H189.681L175.304 175.693ZM186.126 170.075C186.126 173.344 188.792 176.042 192.093 176.042C195.362 176.042 198.027 173.344 198.027 170.075C198.027 166.775 195.362 164.109 192.093 164.109C188.792 164.109 186.126 166.775 186.126 170.075ZM189.458 170.075C189.458 168.616 190.633 167.441 192.093 167.441C193.521 167.441 194.695 168.616 194.695 170.075C194.695 171.504 193.521 172.678 192.093 172.678C190.633 172.678 189.458 171.504 189.458 170.075Z" fill="url(#paint4_linear_108_150)"/>
<path opacity="0.7" d="M142.93 191.919L143.409 189.958H143.423L143.903 191.919L145.553 197.956H146.95L149.686 188.647H148.544L146.287 196.814L144.086 188.647H142.803L140.602 196.785L138.36 188.647H137.147L139.897 197.956H141.294L142.93 191.919ZM153.568 198.083C154.951 198.083 156.107 197.519 156.643 196.56L155.712 196.052C155.458 196.729 154.457 197.11 153.568 197.11C152.398 197.11 151.311 196.278 151.128 194.853H156.728C156.756 194.655 156.784 194.387 156.784 194.063C156.784 192.384 155.529 190.762 153.484 190.762C151.354 190.762 150 192.427 150 194.43C150 196.715 151.579 198.083 153.568 198.083ZM151.142 193.894C151.354 192.723 152.242 191.75 153.484 191.75C154.683 191.75 155.529 192.667 155.698 193.894H151.142ZM158.128 187.659V197.956H159.243V187.659H158.128ZM161.07 187.659V197.956H162.184V187.659H161.07ZM163.87 187.659V197.956H164.899V196.729C165.337 197.533 166.253 198.069 167.424 198.069C169.314 198.069 170.908 196.574 170.908 194.43C170.908 192.286 169.314 190.791 167.424 190.791C166.338 190.791 165.464 191.312 164.998 191.99V187.659H163.87ZM164.899 194.514V194.345C164.899 192.822 166.056 191.82 167.424 191.82C168.736 191.82 169.85 192.906 169.85 194.43C169.85 195.967 168.736 197.053 167.424 197.053C166.056 197.053 164.899 196.052 164.899 194.514ZM175.402 198.083C176.785 198.083 177.941 197.519 178.477 196.56L177.546 196.052C177.292 196.729 176.291 197.11 175.402 197.11C174.232 197.11 173.145 196.278 172.962 194.853H178.562C178.59 194.655 178.618 194.387 178.618 194.063C178.618 192.384 177.363 190.762 175.318 190.762C173.188 190.762 171.834 192.427 171.834 194.43C171.834 196.715 173.413 198.083 175.402 198.083ZM172.976 193.894C173.188 192.723 174.076 191.75 175.318 191.75C176.517 191.75 177.363 192.667 177.532 193.894H172.976ZM180.668 189.606C181.133 189.606 181.514 189.225 181.514 188.759C181.514 188.294 181.133 187.913 180.668 187.913C180.202 187.913 179.821 188.294 179.821 188.759C179.821 189.225 180.202 189.606 180.668 189.606ZM180.103 197.956H181.232V190.903H180.103V197.956ZM186.493 190.762C185.52 190.762 184.617 191.115 184.123 192.004L184.053 190.903H183.066V197.956H184.194V194.204C184.194 192.399 185.351 191.75 186.38 191.75C187.354 191.75 188.115 192.272 188.115 193.837V197.956H189.244V193.442C189.244 191.623 188.002 190.762 186.493 190.762ZM196.654 190.184L195.54 191.242C195.074 190.946 194.51 190.762 193.875 190.762C192.183 190.762 190.984 192.032 190.984 193.428C190.984 194.091 191.223 194.74 191.675 195.22C191.238 195.474 190.955 195.868 190.955 196.461C190.955 197.082 191.379 197.505 191.915 197.759C191.139 197.97 190.673 198.478 190.673 199.127C190.673 200.185 191.689 200.989 193.918 200.989C195.822 200.989 197.402 200.128 197.402 198.732C197.402 197.716 196.612 197.053 195.272 197.053H192.93C192.38 197.053 191.999 196.785 191.999 196.292C191.999 196.024 192.07 195.826 192.225 195.671C192.662 195.939 193.212 196.094 193.875 196.094C195.568 196.094 196.767 194.825 196.767 193.428C196.767 192.892 196.598 192.37 196.273 191.947L197.359 190.903L196.654 190.184ZM191.717 198.901C191.717 198.365 192.183 198.027 193.071 198.027H194.961C196.019 198.027 196.358 198.351 196.358 198.859C196.358 199.479 195.54 200.044 194.044 200.044C192.493 200.044 191.717 199.592 191.717 198.901ZM192.084 193.428C192.084 192.413 192.902 191.679 193.875 191.679C194.848 191.679 195.681 192.413 195.681 193.428C195.681 194.416 194.848 195.177 193.875 195.177C192.902 195.177 192.084 194.416 192.084 193.428ZM153.03 205.647H145.413V206.704H148.658V214.956H149.786V206.704H153.03V205.647ZM155.883 215.083C157.265 215.083 158.422 214.519 158.958 213.56L158.027 213.052C157.773 213.729 156.772 214.11 155.883 214.11C154.712 214.11 153.626 213.278 153.443 211.853H159.043C159.071 211.655 159.099 211.387 159.099 211.063C159.099 209.384 157.844 207.762 155.798 207.762C153.669 207.762 152.314 209.427 152.314 211.43C152.314 213.715 153.894 215.083 155.883 215.083ZM153.457 210.894C153.669 209.723 154.557 208.75 155.798 208.75C156.997 208.75 157.844 209.667 158.013 210.894H153.457ZM168.892 207.762C168.004 207.762 166.875 208.186 166.438 209.145C165.972 208.2 164.999 207.762 164.012 207.762C163.137 207.762 162.263 208.143 161.755 209.004L161.684 207.903H160.697V214.956H161.825V211.19C161.825 209.441 162.982 208.75 163.913 208.75C164.844 208.75 165.577 209.272 165.577 210.555V214.956H166.706V211.091C166.706 209.582 167.693 208.75 168.793 208.75C169.724 208.75 170.458 209.272 170.458 210.555V214.956H171.586V210.442C171.586 208.58 170.246 207.762 168.892 207.762ZM176.249 207.762C174.599 207.762 173.484 208.439 173.118 209.483L173.95 210.09C174.331 209.201 175.177 208.75 176.249 208.75C177.307 208.75 178.04 209.37 178.04 210.301V210.739C176.503 210.767 175.614 210.88 174.796 211.134C173.696 211.472 172.991 212.22 172.991 213.207C172.991 214.476 174.063 215.097 175.53 215.097C176.432 215.097 177.519 214.702 178.04 214.039V215.083L179.169 215.069V213.63V210.16C179.169 208.524 177.857 207.762 176.249 207.762ZM174.119 213.207C174.119 212.586 174.556 212.163 175.149 211.994C175.812 211.811 176.602 211.698 178.04 211.641V212.586C178.04 213.517 176.715 214.152 175.586 214.152C174.782 214.152 174.119 213.799 174.119 213.207ZM180.068 207.861L180.364 208.595C181.676 208.298 182.579 207.339 182.466 206.042C182.409 205.435 182.057 205.068 181.507 205.068C180.999 205.068 180.576 205.477 180.576 205.985C180.576 206.493 180.971 206.888 181.464 206.916C181.295 207.297 180.914 207.593 180.068 207.861ZM185.815 215.097C187.579 215.097 188.721 214.251 188.721 212.939C188.721 211.486 187.311 211.176 186.041 210.936C185.124 210.767 184.137 210.569 184.137 209.836C184.137 209.215 184.842 208.75 185.83 208.75C186.662 208.75 187.311 209.088 187.621 210.019L188.58 209.455C188.199 208.298 187.24 207.762 185.858 207.762C184.038 207.762 183.008 208.693 183.008 209.949C183.008 211.373 184.334 211.684 185.745 211.98C186.845 212.206 187.593 212.389 187.593 213.066C187.593 213.644 187.043 214.11 185.9 214.11C184.87 214.11 183.996 213.729 183.657 212.868L182.74 213.503C183.276 214.575 184.419 215.097 185.815 215.097Z" fill="url(#paint5_linear_108_150)"/>
<path opacity="0.8" d="M56.6186 68.0701H58.6097L59.3832 65.8649H64.1719L64.9454 68.0701H66.9695L62.9871 57.209H60.6174L56.6186 68.0701ZM59.9756 64.17L61.2921 60.4344L61.7529 58.8711H61.7858L62.2795 60.4673L63.5795 64.17H59.9756ZM72.7508 59.6774C71.5495 59.6774 70.5128 60.1711 69.9698 61.2737L69.8875 59.842H68.1267V68.0701H70.1014V63.7092C70.1014 61.9319 71.1546 61.2737 72.1913 61.2737C73.1293 61.2737 73.8205 61.7674 73.8205 63.3142V68.0701H75.7952V62.7054C75.7952 60.6813 74.4787 59.6774 72.7508 59.6774ZM81.4563 59.6774C79.3334 59.6774 78.0169 60.5661 77.6549 61.9484L79.2018 62.5902C79.5309 61.6193 80.3702 61.1749 81.4069 61.1749C82.4436 61.1749 83.1348 61.7838 83.1348 62.7218V63.1826C81.3575 63.3142 80.5676 63.3965 79.86 63.6269C78.3461 64.0548 77.5233 64.894 77.5233 66.0953C77.5233 67.5106 78.6587 68.2511 80.3702 68.2511C81.5386 68.2511 82.674 67.8068 83.2664 67.0333V68.1853L85.0931 68.1688V66.2105V62.6395C85.0931 60.6319 83.6285 59.6774 81.4563 59.6774ZM79.4322 65.8979C79.4322 65.3219 79.8436 64.894 80.5018 64.6966C81.0942 64.5155 81.8348 64.4003 83.1348 64.3181V65.3219C83.1348 66.2599 81.917 66.8523 80.8474 66.8523C80.074 66.8523 79.4322 66.5067 79.4322 65.8979ZM87.1407 56.1887V68.0701H89.1154V56.1887H87.1407ZM95.3444 68.8435L98.8166 59.842H96.7925L95.1633 64.5485L94.6367 66.1282L94.176 64.6636L92.4645 59.842H90.2759L92.8101 66.0624L93.6987 68.1359L93.3696 68.9587C93.0405 69.8473 92.5797 70.0613 91.9708 70.0613C91.4278 70.0613 90.967 69.9461 90.605 69.5018L90.0784 70.9499C90.5721 71.4107 91.1974 71.6081 92.086 71.6081C93.6823 71.6081 94.5874 70.9005 95.3444 68.8435ZM102.942 65.289V61.4382H105.723V59.9407H102.942V57.4229H100.967V59.9407H99.4199V61.4382H100.967V65.6675C100.967 67.3954 102.086 68.2346 103.583 68.2346C104.472 68.2346 105.245 67.9713 105.772 67.5435L105.377 66.0295C105.031 66.227 104.62 66.4903 104.077 66.4903C103.369 66.4903 102.942 66.0789 102.942 65.289ZM108.477 58.5584C109.168 58.5584 109.727 57.9825 109.727 57.3078C109.727 56.6166 109.168 56.0571 108.477 56.0571C107.786 56.0571 107.226 56.6166 107.226 57.3078C107.226 57.9825 107.786 58.5584 108.477 58.5584ZM107.489 68.0701H109.464V59.842H107.489V68.0701ZM111.267 63.9889C111.267 66.408 113.193 68.2511 115.562 68.2511C117.159 68.2511 118.541 67.4447 119.265 66.1118L117.768 65.3219C117.29 66.1118 116.5 66.5396 115.546 66.5396C114.131 66.5396 113.045 65.4371 113.045 63.9725C113.045 62.5243 114.131 61.356 115.546 61.356C116.533 61.356 117.373 61.8826 117.817 62.7218L119.281 61.9155C118.557 60.5496 117.175 59.661 115.562 59.661C113.193 59.661 111.267 61.5699 111.267 63.9889ZM124.067 68.2346C126.387 68.2346 127.704 67.1814 127.704 65.7004C127.704 64.2358 126.585 63.6105 124.462 63.1991C123.178 62.9358 122.537 62.6725 122.537 62.1129C122.537 61.5863 123.178 61.1749 124.166 61.1749C125.235 61.1749 125.927 61.5863 126.371 62.5243L127.671 61.4876C127.013 60.2534 125.959 59.6774 124.149 59.6774C121.813 59.6774 120.562 60.9281 120.562 62.294C120.562 63.7586 121.631 64.4168 123.919 64.8776C125.153 65.1244 125.713 65.3548 125.713 65.8485C125.713 66.3586 125.153 66.7371 124.067 66.7371C122.932 66.7371 121.994 66.3915 121.549 65.4042L120.315 66.5726C121.023 67.7245 122.388 68.2346 124.067 68.2346Z" fill="black"/>
<g opacity="0.5">
<circle cx="277.571" cy="58.9398" r="1.34336" fill="black"/>
<circle cx="277.572" cy="65.6566" r="1.34336" fill="black"/>
</g>
<g filter="url(#filter3_d_108_150)">
<path d="M227.447 102.263C227.447 100.316 229.026 98.7368 230.974 98.7368H308.482C310.43 98.7368 312.009 100.316 312.009 102.263V123.667C312.009 125.614 310.43 127.193 308.482 127.193H227.447V102.263Z" fill="white" shape-rendering="crispEdges"/>
<path d="M246.172 117.094C247.806 117.094 248.993 116.271 248.993 114.826C248.993 113.403 247.794 112.898 246.548 112.557C245.514 112.263 244.809 112.052 244.809 111.287C244.809 110.559 245.349 110.183 246.16 110.183C247.007 110.183 247.559 110.606 247.571 111.534H248.805C248.805 109.947 247.665 109.078 246.125 109.078C244.574 109.078 243.433 109.959 243.433 111.382C243.433 112.745 244.491 113.215 245.949 113.627C246.701 113.838 247.618 114.109 247.618 114.931C247.618 115.543 247.112 116.013 246.149 116.013C245.02 116.013 244.515 115.354 244.515 114.884V114.485H243.363C243.339 114.649 243.328 114.896 243.328 115.025C243.328 116.072 244.338 117.094 246.172 117.094ZM249.91 114.05C249.91 115.778 251.297 117.082 252.989 117.082C254.694 117.082 256.081 115.778 256.081 114.05C256.081 112.322 254.694 110.958 252.989 110.958C251.297 110.958 249.91 112.322 249.91 114.05ZM251.191 114.038C251.191 113.015 251.979 112.169 252.989 112.169C254 112.169 254.8 113.015 254.8 114.038C254.8 115.072 254 115.86 252.989 115.86C251.979 115.86 251.191 115.072 251.191 114.038ZM256.823 114.05C256.823 115.778 258.198 117.094 259.891 117.094C261.031 117.094 262.018 116.518 262.535 115.566L261.466 115.002C261.125 115.566 260.561 115.872 259.879 115.872C258.868 115.872 258.092 115.084 258.092 114.038C258.092 113.004 258.868 112.169 259.879 112.169C260.584 112.169 261.183 112.545 261.501 113.145L262.547 112.569C262.03 111.593 261.042 110.958 259.891 110.958C258.198 110.958 256.823 112.322 256.823 114.05ZM264.437 110.171C264.931 110.171 265.33 109.759 265.33 109.277C265.33 108.784 264.931 108.384 264.437 108.384C263.943 108.384 263.544 108.784 263.544 109.277C263.544 109.759 263.943 110.171 264.437 110.171ZM263.732 116.965H265.142V111.088H263.732V116.965ZM269.357 110.97C267.841 110.97 266.901 111.605 266.642 112.592L267.747 113.051C267.982 112.357 268.581 112.04 269.322 112.04C270.063 112.04 270.556 112.475 270.556 113.145V113.474C269.287 113.568 268.723 113.627 268.217 113.791C267.136 114.097 266.548 114.696 266.548 115.554C266.548 116.565 267.359 117.094 268.581 117.094C269.416 117.094 270.227 116.777 270.65 116.224V117.047L271.955 117.035V115.637V113.086C271.955 111.652 270.909 110.97 269.357 110.97ZM267.911 115.413C267.911 115.002 268.205 114.696 268.676 114.555C269.099 114.426 269.628 114.344 270.556 114.285V115.002C270.556 115.672 269.686 116.095 268.922 116.095C268.37 116.095 267.911 115.848 267.911 115.413ZM273.418 108.478V116.965H274.828V108.478H273.418ZM279.065 108.478V116.965H280.476V108.478H279.065ZM282.815 110.171C283.309 110.171 283.708 109.759 283.708 109.277C283.708 108.784 283.309 108.384 282.815 108.384C282.321 108.384 281.922 108.784 281.922 109.277C281.922 109.759 282.321 110.171 282.815 110.171ZM282.11 116.965H283.52V111.088H282.11V116.965ZM287.876 108.372C286.571 108.372 285.749 109.054 285.749 110.3V111.146H284.679V112.228H285.749V116.965H287.159V112.228H288.993V111.146H287.112V110.441C287.112 109.842 287.488 109.536 288.135 109.536C288.417 109.536 288.781 109.642 288.957 109.712V108.607C288.711 108.455 288.37 108.372 287.876 108.372ZM292.757 117.082C294.038 117.082 295.037 116.589 295.437 115.684L294.285 115.225C294.108 115.719 293.462 116.001 292.757 116.001C291.945 116.001 291.24 115.507 291.052 114.555H295.519C295.542 114.402 295.566 114.12 295.566 113.92C295.566 112.146 294.473 110.97 292.674 110.97C290.735 110.97 289.642 112.345 289.642 114.026C289.642 115.86 290.817 117.082 292.757 117.082ZM291.052 113.533C291.205 112.604 291.804 112.052 292.662 112.052C293.485 112.052 294.108 112.616 294.249 113.533H291.052Z" fill="#45423F"/>
</g>
<g filter="url(#filter4_d_108_150)">
<path d="M45.2544 250.368C45.2544 248.421 46.8332 246.842 48.7807 246.842H112.816V271.772C112.816 273.719 111.237 275.298 109.289 275.298H48.7807C46.8332 275.298 45.2544 273.719 45.2544 271.772V250.368Z" fill="white" shape-rendering="crispEdges"/>
<path d="M67.9991 257.312H66.5769V260.603H62.9918V257.312H61.5695V265.07H62.9918V261.932H66.5769V265.07H67.9991V257.312ZM72.5225 265.188C73.8037 265.188 74.8028 264.694 75.2025 263.789L74.0505 263.33C73.8742 263.824 73.2277 264.106 72.5225 264.106C71.7114 264.106 71.0061 263.613 70.8181 262.66H75.2847C75.3082 262.508 75.3318 262.226 75.3318 262.026C75.3318 260.251 74.2386 259.075 72.4402 259.075C70.5007 259.075 69.4075 260.451 69.4075 262.131C69.4075 263.965 70.583 265.188 72.5225 265.188ZM70.8181 261.638C70.9709 260.709 71.5704 260.157 72.4284 260.157C73.2512 260.157 73.8742 260.721 74.0153 261.638H70.8181ZM79.0946 259.075C77.5783 259.075 76.638 259.71 76.3794 260.697L77.4843 261.156C77.7194 260.462 78.3188 260.145 79.0594 260.145C79.7999 260.145 80.2936 260.58 80.2936 261.25V261.579C79.0241 261.673 78.4599 261.732 77.9545 261.896C76.8731 262.202 76.2853 262.801 76.2853 263.66C76.2853 264.67 77.0964 265.199 78.3188 265.199C79.1534 265.199 79.9645 264.882 80.3876 264.33V265.152L81.6923 265.141V263.742V261.191C81.6923 259.757 80.6462 259.075 79.0946 259.075ZM77.6488 263.518C77.6488 263.107 77.9427 262.801 78.4129 262.66C78.836 262.531 79.365 262.449 80.2936 262.39V263.107C80.2936 263.777 79.4238 264.2 78.6597 264.2C78.1073 264.2 77.6488 263.953 77.6488 263.518ZM83.1549 256.583V265.07H84.5655V256.583H83.1549ZM87.9442 263.084V260.333H89.9307V259.263H87.9442V257.465H86.5337V259.263H85.4288V260.333H86.5337V263.354C86.5337 264.588 87.333 265.188 88.4026 265.188C89.0374 265.188 89.5898 265 89.966 264.694L89.6839 263.613C89.437 263.754 89.1432 263.942 88.7553 263.942C88.2498 263.942 87.9442 263.648 87.9442 263.084ZM92.4725 256.583H91.062V265.07H92.4725V261.967C92.4725 260.697 93.2248 260.204 93.9653 260.204C94.6353 260.204 95.129 260.568 95.129 261.673V265.07H96.5395V261.238C96.5395 259.792 95.5992 259.075 94.365 259.075C93.6597 259.075 92.9544 259.299 92.4725 259.828V256.583Z" fill="#45423F"/>
</g>
<defs>
<filter id="filter0_d_108_150" x="44.6667" y="69.3508" width="245.667" height="245.667" filterUnits="userSpaceOnUse" color-interpolation-filters="sRGB">
<feFlood flood-opacity="0" result="BackgroundImageFix"/>
<feColorMatrix in="SourceAlpha" type="matrix" values="0 0 0 0 0 0 0 0 0 0 0 0 0 0 0 0 0 0 127 0" result="hardAlpha"/>
<feMorphology radius="5.87719" operator="erode" in="SourceAlpha" result="effect1_dropShadow_108_150"/>
<feOffset dy="8.22807"/>
<feGaussianBlur stdDeviation="18.807"/>
<feComposite in2="hardAlpha" operator="out"/>
<feColorMatrix type="matrix" values="0 0 0 0 0.585967 0 0 0 0 0.521823 0 0 0 0 0.970833 0 0 0 0.51 0"/>
<feBlend mode="normal" in2="BackgroundImageFix" result="effect1_dropShadow_108_150"/>
<feBlend mode="normal" in="SourceGraphic" in2="effect1_dropShadow_108_150" result="shape"/>
</filter>
<filter id="filter1_d_108_150" x="68.1754" y="95.2105" width="198.649" height="198.649" filterUnits="userSpaceOnUse" color-interpolation-filters="sRGB">
<feFlood flood-opacity="0" result="BackgroundImageFix"/>
<feColorMatrix in="SourceAlpha" type="matrix" values="0 0 0 0 0 0 0 0 0 0 0 0 0 0 0 0 0 0 127 0" result="hardAlpha"/>
<feMorphology radius="5.87719" operator="erode" in="SourceAlpha" result="effect1_dropShadow_108_150"/>
<feOffset dy="10.5789"/>
<feGaussianBlur stdDeviation="15.8684"/>
<feComposite in2="hardAlpha" operator="out"/>
<feColorMatrix type="matrix" values="0 0 0 0 0.245387 0 0 0 0 0.168229 0 0 0 0 0.708333 0 0 0 0.35 0"/>
<feBlend mode="normal" in2="BackgroundImageFix" result="effect1_dropShadow_108_150"/>
<feBlend mode="normal" in="SourceGraphic" in2="effect1_dropShadow_108_150" result="shape"/>
</filter>
<filter id="filter2_d_108_150" x="95.7982" y="120.483" width="143.404" height="143.403" filterUnits="userSpaceOnUse" color-interpolation-filters="sRGB">
<feFlood flood-opacity="0" result="BackgroundImageFix"/>
<feColorMatrix in="SourceAlpha" type="matrix" values="0 0 0 0 0 0 0 0 0 0 0 0 0 0 0 0 0 0 127 0" result="hardAlpha"/>
<feMorphology radius="8.81579" operator="erode" in="SourceAlpha" result="effect1_dropShadow_108_150"/>
<feOffset dy="8.22807"/>
<feGaussianBlur stdDeviation="12.9298"/>
<feComposite in2="hardAlpha" operator="out"/>
<feColorMatrix type="matrix" values="0 0 0 0 0.679167 0 0 0 0 0.297135 0 0 0 0 0.297135 0 0 0 0.29 0"/>
<feBlend mode="normal" in2="BackgroundImageFix" result="effect1_dropShadow_108_150"/>
<feBlend mode="normal" in="SourceGraphic" in2="effect1_dropShadow_108_150" result="shape"/>
</filter>
<filter id="filter3_d_108_150" x="210.991" y="86.3947" width="136.281" height="80.1754" filterUnits="userSpaceOnUse" color-interpolation-filters="sRGB">
<feFlood flood-opacity="0" result="BackgroundImageFix"/>
<feColorMatrix in="SourceAlpha" type="matrix" values="0 0 0 0 0 0 0 0 0 0 0 0 0 0 0 0 0 0 127 0" result="hardAlpha"/>
<feOffset dx="9.40351" dy="13.5175"/>
<feGaussianBlur stdDeviation="12.9298"/>
<feComposite in2="hardAlpha" operator="out"/>
<feColorMatrix type="matrix" values="0 0 0 0 0.321101 0 0 0 0 0.26224 0 0 0 0 0.6625 0 0 0 0.19 0"/>
<feBlend mode="normal" in2="BackgroundImageFix" result="effect1_dropShadow_108_150"/>
<feBlend mode="normal" in="SourceGraphic" in2="effect1_dropShadow_108_150" result="shape"/>
</filter>
<filter id="filter4_d_108_150" x="9.99124" y="231.561" width="119.281" height="80.1754" filterUnits="userSpaceOnUse" color-interpolation-filters="sRGB">
<feFlood flood-opacity="0" result="BackgroundImageFix"/>
<feColorMatrix in="SourceAlpha" type="matrix" values="0 0 0 0 0 0 0 0 0 0 0 0 0 0 0 0 0 0 127 0" result="hardAlpha"/>
<feOffset dx="-9.40351" dy="10.5789"/>
<feGaussianBlur stdDeviation="12.9298"/>
<feComposite in2="hardAlpha" operator="out"/>
<feColorMatrix type="matrix" values="0 0 0 0 0.908333 0 0 0 0 0.476875 0 0 0 0 0.476875 0 0 0 0.19 0"/>
<feBlend mode="normal" in2="BackgroundImageFix" result="effect1_dropShadow_108_150"/>
<feBlend mode="normal" in="SourceGraphic" in2="effect1_dropShadow_108_150" result="shape"/>
</filter>
<linearGradient id="paint0_linear_108_150" x1="167.5" y1="31.7368" x2="167.5" y2="304.439" gradientUnits="userSpaceOnUse">
<stop stop-color="white"/>
<stop offset="1" stop-color="white" stop-opacity="0.72"/>
</linearGradient>
<linearGradient id="paint1_linear_108_150" x1="167.5" y1="92.8596" x2="167.5" y2="275.053" gradientUnits="userSpaceOnUse">
<stop stop-color="#725EEA"/>
<stop offset="1" stop-color="#7560F2" stop-opacity="0.61"/>
</linearGradient>
<linearGradient id="paint2_linear_108_150" x1="167.5" y1="110.491" x2="167.5" y2="257.421" gradientUnits="userSpaceOnUse">
<stop stop-color="#FF8F8F"/>
<stop offset="1" stop-color="#FFBEBE"/>
</linearGradient>
<linearGradient id="paint3_linear_108_150" x1="167.5" y1="129.298" x2="167.5" y2="238.614" gradientUnits="userSpaceOnUse">
<stop stop-color="#FFFDF2"/>
<stop offset="1" stop-color="#FFFDF4" stop-opacity="0.63"/>
</linearGradient>
<linearGradient id="paint4_linear_108_150" x1="167.175" y1="148.693" x2="167.175" y2="181.693" gradientUnits="userSpaceOnUse">
<stop offset="0.175396"/>
<stop offset="0.824071" stop-opacity="0.85"/>
</linearGradient>
<linearGradient id="paint5_linear_108_150" x1="167.206" y1="183.956" x2="167.206" y2="219.956" gradientUnits="userSpaceOnUse">
<stop offset="0.22035"/>
<stop offset="1" stop-opacity="0.6"/>
</linearGradient>
</defs>
</svg>
