<svg width="15" height="15" viewBox="0 0 15 15" fill="none" xmlns="http://www.w3.org/2000/svg">
<path d="M4.85749 1.52426L5.52999 1.30926C6.16061 1.10801 6.83436 1.43363 7.10436 2.06988L7.64186 3.33738C7.87561 3.88926 7.74561 4.53863 7.32061 4.94238L6.13624 6.06613C6.20936 6.73863 6.43561 7.40051 6.81436 8.05176C7.17403 8.68184 7.65647 9.23335 8.23311 9.67363L9.65561 9.19863C10.1944 9.01926 10.7819 9.22613 11.1119 9.71176L11.8825 10.843C12.2669 11.408 12.1975 12.1868 11.7206 12.6655L11.21 13.1786C10.7012 13.6893 9.97436 13.8749 9.30249 13.6649C7.71499 13.1699 6.25687 11.7005 4.92562 9.25676C3.59249 6.80926 3.12187 4.73176 3.51437 3.02676C3.67937 2.30926 4.18999 1.73738 4.85749 1.52426Z" fill="black"/>
</svg>
