<svg width="172" height="33" viewBox="0 0 172 33" fill="none" xmlns="http://www.w3.org/2000/svg">
<rect width="172" height="33" fill="#D9D9D9"/>
<g id="About 2">
<rect width="375" height="3987" transform="translate(-44 -2034)" fill="#F9F7EE"/>
<g id="You might also be interested in...">
<g id="Card 01">
<rect id="Rectangle 36" x="-23.5473" y="-44.7365" width="334.095" height="426.446" rx="8.60135" fill="white" stroke="black" stroke-width="0.905405"/>
<g id="Frame" clip-path="url(#clip0_0_1)">
<g id="Group">
<path id="Vector" d="M14.0683 15.111C13.2796 13.2447 11.8128 12.3114 9.66815 12.3114C8.25413 12.3114 6.28654 12.8944 6.28654 14.6122C6.28654 16.8207 9.63742 17.4957 11.2973 17.8022C15.0785 18.508 18.8905 19.7043 18.8905 24.2136C18.8905 28.8763 14.2793 30.717 10.3137 30.717C8.19263 30.717 6.22509 30.2262 4.41145 29.214C2.59781 28.2321 1.27577 26.5451 0.445801 24.1829C0.445801 24.1829 3.89058 23.1198 4.48171 22.937C5.48099 25.4398 7.47688 26.9436 10.4059 26.9436C12.0046 26.9436 14.679 26.4224 14.679 24.367C14.679 22.0355 11.5125 21.545 9.76037 21.2993C4.6881 20.5328 2.13648 18.293 2.13648 14.5815C2.13648 10.4707 6.37877 8.63049 9.91405 8.63049C13.5723 8.63049 16.7385 10.3482 17.9683 13.9064C17.9683 13.9064 14.6394 14.9333 14.0683 15.111Z" fill="black"/>
<path id="Vector_2" d="M21.625 30.4105V8.93726H25.5599V18.4776C26.4821 16.5449 28.265 15.5634 30.3863 15.5634C33.7986 15.5634 35.7354 17.7414 35.7354 21.0849V30.4105H31.8313V22.0051C31.8313 20.0726 30.8781 18.8148 28.8493 18.8148C26.5743 18.8148 25.5599 20.8395 25.5599 22.8642V30.4105H21.625Z" fill="black"/>
<path id="Vector_3" d="M50.3056 23.2025C50.3056 20.8099 48.7069 18.9388 46.2785 18.9388C43.8191 18.9388 42.3436 20.902 42.3436 23.2025C42.3436 25.5036 43.942 27.3746 46.2785 27.3746C48.7069 27.3746 50.3056 25.5342 50.3056 23.2025ZM38.4087 23.2025C38.4087 19.0002 41.1755 15.5645 45.4793 15.5645C47.2621 15.5645 49.2297 16.2393 50.1519 17.8652V15.8712H54.0868V30.4116H50.3056V28.2642C49.2297 29.8899 47.6618 30.7184 45.5408 30.7184C41.114 30.7184 38.4087 27.3746 38.4087 23.2025Z" fill="black"/>
<path id="Vector_4" d="M61.702 15.8712V17.7425C62.348 16.3006 63.6389 15.5645 65.2067 15.5645C67.8196 15.5645 69.3873 17.3129 69.3873 19.859C69.3873 20.5034 69.3259 21.086 69.172 21.669H65.4525C65.5449 21.3316 65.5754 20.9633 65.5754 20.5645C65.5754 19.4296 64.8374 18.7548 63.7308 18.7548C62.317 18.7548 61.702 19.7363 61.702 21.0553V30.4116H57.7671V15.8712H61.702Z" fill="black"/>
<path id="Vector_5" d="M74.6121 21.2701H80.8521L80.8831 21.1473C80.8831 20.4114 80.6063 19.8284 80.0837 19.3682C79.5307 18.9388 78.8232 18.7238 77.9319 18.7238C76.3332 18.7238 74.9808 19.675 74.6121 21.2701ZM81.8358 24.8591L85.1867 26.1781C84.08 29.2153 81.59 30.7184 78.3931 30.7184C73.7508 30.7184 70.6772 27.5587 70.6772 23.0494C70.6772 18.7854 73.6588 15.5645 77.9319 15.5645C81.9897 15.5645 84.6951 18.0797 84.6951 22.0982C84.6951 22.7426 84.6336 23.3254 84.5107 23.8776H74.6121C74.6736 26.0554 76.3332 27.344 78.4545 27.344C80.2371 27.344 81.3747 26.5158 81.8358 24.8591Z" fill="black"/>
<path id="Vector_6" d="M124.388 23.2025C124.388 20.8099 122.79 18.9388 120.361 18.9388C117.901 18.9388 116.426 20.902 116.426 23.2025C116.426 25.5036 118.024 27.3746 120.361 27.3746C122.79 27.3746 124.388 25.5342 124.388 23.2025ZM112.491 23.2025C112.491 19.0002 115.258 15.5645 119.561 15.5645C121.345 15.5645 123.312 16.2393 124.234 17.8652V15.8712H128.169V30.4116H124.388V28.2642C123.312 29.8899 121.744 30.7184 119.623 30.7184C115.196 30.7184 112.491 27.3746 112.491 23.2025Z" fill="black"/>
<path id="Vector_7" d="M133.947 25.5008V19.0894H130.935V15.8684H133.947V11.083H137.852V15.8684H143.323V19.0894H137.852V25.5008C137.852 26.5437 138.435 27.2492 139.511 27.2492C140.526 27.2492 141.11 26.5744 141.233 25.2245L144.86 25.8993C144.43 28.9056 142.524 30.7156 139.419 30.7156C136.099 30.7156 133.947 28.9056 133.947 25.5008Z" fill="black"/>
<path id="Vector_8" d="M150.424 21.2701H156.664L156.695 21.1473C156.695 20.4114 156.418 19.8284 155.896 19.3682C155.342 18.9388 154.635 18.7238 153.744 18.7238C152.146 18.7238 150.793 19.675 150.424 21.2701ZM157.648 24.8591L160.999 26.1781C159.893 29.2153 157.402 30.7184 154.205 30.7184C149.563 30.7184 146.489 27.5587 146.489 23.0494C146.489 18.7854 149.471 15.5645 153.744 15.5645C157.802 15.5645 160.507 18.0797 160.507 22.0982C160.507 22.7426 160.446 23.3254 160.323 23.8776H150.424C150.486 26.0554 152.146 27.344 154.267 27.344C156.05 27.344 157.187 26.5158 157.648 24.8591Z" fill="black"/>
<path id="Vector_9" d="M171.434 15.4818C171.434 17.4613 169.826 19.0663 167.842 19.0663C165.858 19.0663 164.25 17.4613 164.25 15.4818C164.25 13.5021 165.858 11.8971 167.842 11.8971C169.826 11.8971 171.434 13.5021 171.434 15.4818Z" fill="black"/>
<path id="Vector_10" d="M170.267 24.9952C170.267 26.3318 169.182 27.4151 167.842 27.4151C166.503 27.4151 165.417 26.3318 165.417 24.9952C165.417 23.6588 166.503 22.5754 167.842 22.5754C169.182 22.5754 170.267 23.6588 170.267 24.9952Z" fill="black"/>
<path id="Vector_11" d="M98.0797 22.6493H104.335C103.813 25.2568 101.292 26.8825 98.7097 26.8825C94.5595 26.8825 91.8852 23.8149 91.8852 19.6736C91.8852 15.6858 94.5905 12.4647 98.7712 12.4647C101.318 12.4647 103.289 13.4804 104.365 15.4457L108.438 14.1845C106.685 10.4369 103.087 8.63049 98.7097 8.63049C92.4997 8.63049 87.6431 13.3543 87.6431 19.6736C87.6431 25.8393 91.9162 30.717 98.341 30.717C101.815 30.717 104.612 29.214 105.995 25.9621V30.4102H109.42V19.0601H98.0797V22.6493Z" fill="black"/>
</g>
</g>
</g>
</g>
</g>
<defs>
<clipPath id="clip0_0_1">
<rect width="170.988" height="32.5946" fill="white" transform="translate(0.445801 0.0810547)"/>
</clipPath>
</defs>
</svg>
