<svg width="109" height="46" viewBox="0 0 109 46" fill="none" xmlns="http://www.w3.org/2000/svg">
<g clip-path="url(#clip0_74_26)">
<path fill-rule="evenodd" clip-rule="evenodd" d="M1.41703 35.6063C1.39691 35.9889 1.27298 36.3616 1.05571 36.6929C0.838439 37.0242 0.534202 37.3044 0.168694 37.5099H7.05815C6.65298 37.3043 6.30391 37.0223 6.0357 36.6841C5.7675 36.3459 5.58671 35.9596 5.50617 35.5526V26.9479H11.208C11.208 26.9479 12.9354 27.1568 12.9354 27.843V24.6923H5.51292V18.4983H12.7465C13.1649 18.4983 14.6494 19.0951 14.7101 19.8469C14.7708 20.5988 14.7101 16.2666 14.7101 16.2666H0C0.379608 16.4797 0.702727 16.7628 0.947284 17.0964C1.19184 17.4301 1.35207 17.8065 1.41703 18.2C1.48451 19.3934 1.41703 34.3532 1.41703 35.6063Z" fill="black"/>
<path fill-rule="evenodd" clip-rule="evenodd" d="M38.0843 16.2549C38.5098 16.4311 38.8721 16.7075 39.1316 17.0538C39.3911 17.4001 39.5377 17.8029 39.5553 18.2181V38.8945C39.5553 39.36 38.8806 43.9726 35.7563 45.8642C37.8214 45.5652 39.7411 44.735 41.276 43.4773C41.6404 43.167 43.7119 41.902 43.7119 37.5101C43.7119 32.79 43.658 19.4593 43.658 18.1942C43.6825 17.7721 43.8474 17.3658 44.1318 17.0261C44.4163 16.6865 44.8078 16.4286 45.2572 16.2847L38.0843 16.2549Z" fill="black"/>
<path fill-rule="evenodd" clip-rule="evenodd" d="M17.5442 18.2121C17.5387 17.8051 17.4068 17.4072 17.1628 17.062C16.9188 16.7168 16.5722 16.4376 16.1609 16.2549H23.3135C23.3135 16.2549 21.802 17.0485 21.802 18.1584C21.802 18.8566 21.802 29.341 21.802 31.1729C21.802 33.0049 22.9896 35.5827 26.4782 35.5827C29.2313 35.5827 30.4661 33.0049 30.4661 31.1729C30.4661 29.5976 30.4189 19.3519 30.4189 18.242C30.4119 17.835 30.2834 17.4368 30.0464 17.0878C29.8094 16.7389 29.4724 16.4515 29.0693 16.2549H36.2287C36.2287 16.2549 34.7307 16.9709 34.7307 18.045C34.7307 18.7492 34.7307 31.2744 34.7307 31.2744C34.6762 32.7016 34.1248 34.0791 33.1517 35.2187C32.3361 36.0485 31.3253 36.7108 30.1901 37.1592C29.0549 37.6075 27.8226 37.8312 26.5794 37.8144C22.6792 37.8681 20.8843 36.6687 19.1569 35.1889C17.9085 34.1148 17.5846 31.9845 17.5307 31.1013C17.4902 29.3708 17.5307 18.8685 17.5307 18.1883L17.5442 18.2121Z" fill="black"/>
<path fill-rule="evenodd" clip-rule="evenodd" d="M89.4077 18.2121C89.3993 17.8057 89.2662 17.4089 89.0225 17.0641C88.7789 16.7194 88.4339 16.4397 88.0244 16.2549H95.2041C95.2041 16.2549 93.6926 17.0485 93.6926 18.1584C93.6926 18.8566 93.6926 29.341 93.6926 31.1729C93.6926 33.0049 94.8802 35.5827 98.3688 35.5827C101.122 35.5827 102.35 33.0049 102.35 31.1729C102.35 29.5976 102.309 19.3519 102.309 18.242C102.302 17.835 102.174 17.4368 101.937 17.0878C101.7 16.7389 101.363 16.4515 100.96 16.2549H108.133C108.133 16.2549 106.635 16.9709 106.635 18.045C106.635 18.7492 106.635 31.2744 106.635 31.2744C106.584 32.7021 106.032 34.0806 105.056 35.2187C104.241 36.0492 103.23 36.7119 102.095 37.1603C100.959 37.6087 99.7268 37.832 98.4835 37.8144C94.5765 37.8681 92.7951 36.6687 91.0609 35.1889C89.8193 34.1148 89.4887 31.9845 89.4415 31.1013C89.401 29.3708 89.4415 18.8685 89.4415 18.1883L89.4077 18.2121Z" fill="black"/>
<path fill-rule="evenodd" clip-rule="evenodd" d="M52.4301 35.5469C52.4301 36.7045 53.9685 37.5101 54.0225 37.5101H46.8564C46.8564 37.5101 48.3139 36.7045 48.3139 35.6006C48.3139 34.9024 48.3139 18.8924 48.3139 18.2181C48.2963 17.8029 48.1497 17.4001 47.8902 17.0538C47.6307 16.7075 47.2684 16.4311 46.8429 16.2549H54.0225C54.0225 16.2549 52.4301 17.0664 52.4301 18.1644V35.5469Z" fill="black"/>
<path fill-rule="evenodd" clip-rule="evenodd" d="M61.1279 18.5642C61.1279 19.2445 61.1279 34.98 61.1279 35.6782C61.1279 36.7821 59.6097 37.5101 59.6097 37.5101H66.8028C66.7488 37.5101 65.3318 36.6986 65.3318 35.5469C65.3318 34.8607 65.406 18.6179 65.406 18.6179C65.406 18.4687 68.1051 18.5045 68.9216 18.5224C69.3884 18.5251 69.8375 18.681 70.1817 18.96C70.5258 19.239 70.7405 19.6211 70.784 20.0321C70.838 20.4021 72.255 16.2549 72.255 16.2549H55.561L54.1508 20.4319C54.1508 20.4319 55.8647 18.594 56.6272 18.594C57.7136 18.594 61.1279 18.594 61.1279 18.594V18.5642Z" fill="black"/>
<path fill-rule="evenodd" clip-rule="evenodd" d="M73.1254 37.4862L71.8164 33.4523C73.2845 34.8078 75.2837 35.6149 77.4035 35.708C80.9596 35.8631 82.046 34.3534 82.3969 34.0312C82.7477 33.7089 84.6169 31.5667 81.7221 29.9914C78.6181 28.3086 75.8313 27.3717 74.583 26.411C73.6245 25.7017 72.9035 24.7742 72.4979 23.7288C72.0924 22.6834 72.0177 21.5598 72.282 20.4796C72.9567 17.5497 76.6073 16.3026 78.085 16.0818C79.5628 15.861 83.5642 15.9207 85.1095 16.4458C85.2107 16.6069 85.1095 19.6979 85.1095 19.6979C85.0285 19.9008 84.5157 18.1822 80.8314 18.1226C77.1471 18.0629 76.5533 20.2767 76.4993 20.4259C76.1823 21.1419 76.1955 21.9393 76.5362 22.6467C76.8769 23.3541 77.5178 23.9151 78.3212 24.2091C81.2362 25.5219 84.104 26.3394 86.2161 28.6666C88.652 31.3399 86.4927 34.8069 85.8247 35.4752C84.8328 36.4777 81.8975 37.9994 78.7463 37.9994C74.4885 37.9994 73.1727 37.528 73.1052 37.4683L73.1254 37.4862Z" fill="black"/>
<path fill-rule="evenodd" clip-rule="evenodd" d="M57.005 5.87169C57.0589 6.66506 56.9252 7.45965 56.6126 8.20482C56.3 8.94999 55.8153 9.6294 55.1894 10.1998C54.5634 10.7701 53.81 11.2189 52.9771 11.5176C52.1442 11.8162 51.2501 11.9582 50.3518 11.9344C46.681 11.9821 44.9063 9.46396 44.488 9.04625C44.0696 8.62855 43.1856 7.02933 40.9251 6.98159C40.0856 6.98101 39.2769 7.26114 38.6612 7.7658C38.0454 8.27046 37.6683 8.96233 37.6052 9.70265C37.5513 10.6514 38.0169 12.9488 40.9791 13.0025C43.6782 13.0622 45.0278 10.4903 45.0278 10.4903V13.1636C44.517 13.6451 43.9033 14.0322 43.2223 14.3026C42.5413 14.573 41.8064 14.7213 41.0601 14.739C40.3136 14.7352 39.5757 14.5972 38.8913 14.3333C38.207 14.0695 37.5905 13.6853 37.0792 13.2042C36.568 12.7231 36.1727 12.155 35.9175 11.5346C35.6622 10.9142 35.5523 10.2544 35.5944 9.59524C35.7091 6.29536 39.4474 5.13772 41.1681 5.19143C42.8887 5.24513 44.3732 5.97313 45.6756 7.57832C46.9779 9.1835 48.6986 10.4187 51.202 9.9652C52.304 9.80471 53.2999 9.28913 53.9977 8.51785C54.6954 7.74658 55.0456 6.7742 54.9807 5.78815C54.9807 2.90598 51.6068 1.84382 50.3045 1.85575C49.6794 1.86585 49.0629 1.9867 48.4915 2.21116C47.9201 2.43563 47.4054 2.75914 46.9779 3.16257C46.1232 3.94968 45.4737 4.89269 45.075 5.9254V2.41667C45.075 2.41667 47.0993 0.0297852 50.1156 0.0297852C51.8922 0.035793 53.5983 0.645595 54.8807 1.733C56.1631 2.82041 56.9237 4.30218 57.005 5.87169Z" fill="black"/>
</g>
<defs>
<clipPath id="clip0_74_26">
<rect width="108.126" height="45.87" fill="white"/>
</clipPath>
</defs>
</svg>
