<svg width="180" height="36" viewBox="0 0 180 36" fill="none" xmlns="http://www.w3.org/2000/svg">
<rect width="180" height="36" fill="#D9D9D9"/>
<g id="Health Care Web Design" clip-path="url(#clip0_0_1)">
<rect width="375" height="8693" transform="translate(-20 -30)" fill="#F9F7EE"/>
<g id="Nav">
<g id="Logo">
<path d="M11.3671 11.4146V0H16.6134V16.6829H6.99513V11.4146H11.3671Z" fill="black"/>
<path d="M24.4829 11.4146V7.02439H19.2366V16.6829H35.85V11.4146H24.4829Z" fill="black"/>
<path d="M19.2366 19.3171V36H24.4829V24.5854H28.8549V19.3171H19.2366Z" fill="black"/>
<path d="M11.3671 24.5854H0V19.3171H16.6134V28.9756H11.3671V24.5854Z" fill="black"/>
<path d="M46.1049 11.527V26.3415H48.9589V19.9563H55.3594V26.3415H58.2135V11.527H55.3594V17.4275H48.9589V11.527H46.1049Z" fill="black"/>
<path fill-rule="evenodd" clip-rule="evenodd" d="M62.3204 25.8779C63.1458 26.3274 64.0901 26.5522 65.1534 26.5522C65.9788 26.5522 66.7413 26.4047 67.4408 26.1097C68.1543 25.8146 68.7559 25.3791 69.2455 24.8031L67.6297 23.1805C67.3219 23.5317 66.9581 23.7986 66.5384 23.9813C66.1187 24.1499 65.65 24.2341 65.1324 24.2341C64.5588 24.2341 64.0552 24.1147 63.6215 23.8759C63.1878 23.623 62.852 23.2718 62.6142 22.8222C62.5247 22.637 62.4531 22.4394 62.3994 22.2295L69.8121 22.2111C69.8681 21.9723 69.9031 21.7616 69.9171 21.5789C69.9451 21.3822 69.959 21.1926 69.959 21.01C69.959 20.0406 69.7422 19.1766 69.3085 18.418C68.8888 17.6453 68.3012 17.0412 67.5457 16.6057C66.8042 16.1561 65.9438 15.9313 64.9645 15.9313C63.9712 15.9313 63.0688 16.1701 62.2574 16.6478C61.446 17.1114 60.8024 17.7436 60.3267 18.5444C59.8651 19.3311 59.6342 20.2302 59.6342 21.2418C59.6342 22.2673 59.8721 23.1805 60.3477 23.9813C60.8374 24.782 61.4949 25.4142 62.3204 25.8779ZM62.4019 20.1638C62.451 19.9775 62.5147 19.803 62.5932 19.6402C62.817 19.1906 63.1318 18.8464 63.5375 18.6076C63.9432 18.3547 64.4189 18.2283 64.9645 18.2283C65.4822 18.2283 65.9159 18.3407 66.2656 18.5655C66.6294 18.7762 66.9022 19.0853 67.084 19.4927C67.1783 19.6888 67.2532 19.9078 67.3086 20.1495L62.4019 20.1638Z" fill="black"/>
<path fill-rule="evenodd" clip-rule="evenodd" d="M72.7714 25.8568C73.5129 26.3204 74.3453 26.5522 75.2687 26.5522C75.9962 26.5522 76.6467 26.4047 77.2203 26.1097C77.6016 25.9042 77.9304 25.6522 78.2066 25.3536V26.3415H80.9347V16.1631H78.2066V17.1416C77.9304 16.84 77.6016 16.5911 77.2203 16.3949C76.6467 16.0999 75.9962 15.9524 75.2687 15.9524C74.3453 15.9524 73.5129 16.1842 72.7714 16.6478C72.0299 17.1114 71.4493 17.7436 71.0296 18.5444C70.6099 19.3452 70.4001 20.2513 70.4001 21.2628C70.4001 22.2603 70.6099 23.1594 71.0296 23.9602C71.4493 24.761 72.0299 25.3932 72.7714 25.8568ZM77.64 23.2437C77.1644 23.7495 76.5418 24.0023 75.7723 24.0023C75.2687 24.0023 74.821 23.89 74.4293 23.6652C74.0515 23.4263 73.7507 23.1032 73.5269 22.6958C73.317 22.2743 73.2121 21.7897 73.2121 21.2418C73.2121 20.7079 73.317 20.2373 73.5269 19.8299C73.7507 19.4084 74.0515 19.0853 74.4293 18.8605C74.821 18.6217 75.2687 18.5022 75.7723 18.5022C76.29 18.5022 76.7376 18.6217 77.1154 18.8605C77.5071 19.0853 77.8079 19.4084 78.0178 19.8299C78.2416 20.2373 78.3535 20.7079 78.3535 21.2418C78.3535 22.0566 78.1157 22.7239 77.64 23.2437Z" fill="black"/>
<path d="M82.7372 11.1056V26.3415H85.4863V11.1056H82.7372Z" fill="black"/>
<path d="M88.7824 18.5865V26.3415H91.5315V18.5865H93.9029V16.1631H91.5315V11.9274H88.7824V16.1631H86.4111V18.5865H88.7824Z" fill="black"/>
<path d="M101.64 20.5042V26.3415H104.389V19.8931C104.389 19.1204 104.221 18.439 103.885 17.849C103.549 17.2589 103.081 16.7953 102.479 16.4581C101.891 16.121 101.213 15.9524 100.443 15.9524C99.674 15.9524 98.9884 16.121 98.3869 16.4581C98.0796 16.6344 97.8068 16.8472 97.5684 17.0965V11.1056H94.8193V26.3415H97.5684V20.5042C97.5684 20.0968 97.6524 19.7385 97.8203 19.4295C98.0021 19.1204 98.247 18.8816 98.5547 18.713C98.8625 18.5444 99.2123 18.4601 99.604 18.4601C100.206 18.4601 100.695 18.6498 101.073 19.0291C101.451 19.4084 101.64 19.9001 101.64 20.5042Z" fill="black"/>
<path d="M108.666 24.1077C109.352 24.9225 110.114 25.5337 110.954 25.9411C111.807 26.3485 112.828 26.5522 114.018 26.5522C115.696 26.5522 117.018 26.1588 117.984 25.3721C118.949 24.5854 119.432 23.5036 119.432 22.1268C119.432 21.3541 119.306 20.7079 119.054 20.1881C118.802 19.6542 118.466 19.2187 118.047 18.8816C117.641 18.5444 117.186 18.2704 116.683 18.0597C116.193 17.849 115.696 17.6593 115.193 17.4907C114.703 17.3221 114.248 17.1465 113.829 16.9639C113.423 16.7813 113.094 16.5635 112.842 16.3106C112.591 16.0578 112.465 15.7276 112.465 15.3202C112.465 14.8425 112.653 14.4773 113.031 14.2244C113.409 13.9715 113.927 13.8451 114.584 13.8451C115.158 13.8451 115.668 13.9575 116.116 14.1822C116.578 14.407 117.025 14.7582 117.459 15.2359L119.348 13.3393C118.83 12.7352 118.166 12.2435 117.354 11.8642C116.543 11.4849 115.633 11.2952 114.626 11.2952C113.675 11.2952 112.821 11.4638 112.066 11.801C111.31 12.1381 110.716 12.6228 110.282 13.255C109.848 13.8872 109.632 14.6529 109.632 15.552C109.632 16.3106 109.757 16.9428 110.009 17.4486C110.261 17.9403 110.59 18.3477 110.996 18.6708C111.415 18.9799 111.87 19.2398 112.36 19.4505C112.863 19.6613 113.36 19.8509 113.85 20.0195C114.353 20.174 114.808 20.3497 115.214 20.5463C115.633 20.743 115.969 20.9819 116.221 21.2628C116.473 21.5438 116.599 21.9091 116.599 22.3586C116.599 22.8784 116.375 23.2859 115.927 23.5809C115.493 23.8759 114.906 24.0234 114.164 24.0234C113.339 24.0234 112.639 23.8689 112.066 23.5598C111.492 23.2367 110.989 22.7871 110.555 22.2111L108.666 24.1077Z" fill="black"/>
<path fill-rule="evenodd" clip-rule="evenodd" d="M122.673 25.8568C123.498 26.3204 124.421 26.5522 125.443 26.5522C126.464 26.5522 127.38 26.3204 128.192 25.8568C129.017 25.3791 129.668 24.7399 130.143 23.9391C130.619 23.1243 130.857 22.2181 130.857 21.2207C130.857 20.2232 130.619 19.3311 130.143 18.5444C129.668 17.7436 129.017 17.1114 128.192 16.6478C127.38 16.1701 126.457 15.9313 125.422 15.9313C124.414 15.9313 123.498 16.1701 122.673 16.6478C121.847 17.1114 121.197 17.7436 120.721 18.5444C120.245 19.3311 120.007 20.2232 120.007 21.2207C120.007 22.2181 120.245 23.1243 120.721 23.9391C121.211 24.7399 121.861 25.3791 122.673 25.8568ZM126.786 23.6441C126.394 23.8689 125.939 23.9813 125.422 23.9813C124.918 23.9813 124.47 23.8689 124.079 23.6441C123.687 23.4053 123.379 23.0821 123.155 22.6747C122.931 22.2533 122.819 21.7756 122.819 21.2418C122.819 20.7079 122.931 20.2373 123.155 19.8299C123.379 19.4224 123.687 19.1063 124.079 18.8816C124.47 18.6427 124.918 18.5233 125.422 18.5233C125.939 18.5233 126.394 18.6427 126.786 18.8816C127.177 19.1063 127.485 19.4224 127.709 19.8299C127.933 20.2373 128.045 20.7079 128.045 21.2418C128.045 21.7756 127.933 22.2533 127.709 22.6747C127.499 23.0821 127.191 23.4053 126.786 23.6441Z" fill="black"/>
<path d="M131.997 11.1056V26.3415H134.746V11.1056H131.997Z" fill="black"/>
<path d="M138.483 25.9832C139.183 26.3625 139.98 26.5522 140.875 26.5522C141.771 26.5522 142.561 26.3696 143.247 26.0043C143.946 25.625 144.485 25.0981 144.863 24.4238C145.254 23.7495 145.45 22.9627 145.45 22.0636V16.1631H142.701V22.0004C142.701 22.6326 142.54 23.1243 142.218 23.4755C141.897 23.8267 141.449 24.0023 140.875 24.0023C140.498 24.0023 140.169 23.9251 139.889 23.7705C139.609 23.616 139.399 23.3912 139.26 23.0962C139.12 22.7871 139.05 22.4219 139.05 22.0004V16.1631H136.28V22.0636C136.28 22.9487 136.475 23.7284 136.867 24.4027C137.259 25.0771 137.798 25.6039 138.483 25.9832Z" fill="black"/>
<path d="M148.5 18.5865V26.3415H151.249V18.5865H153.62V16.1631H151.249V11.9274H148.5V16.1631H146.128V18.5865H148.5Z" fill="black"/>
<path d="M154.537 16.1631V26.3415H157.307V16.1631H154.537Z" fill="black"/>
<path d="M154.81 14.0769C155.103 14.3719 155.474 14.5194 155.922 14.5194C156.383 14.5194 156.754 14.3719 157.034 14.0769C157.328 13.7678 157.475 13.3885 157.475 12.9389C157.475 12.5034 157.328 12.1311 157.034 11.822C156.754 11.513 156.383 11.3584 155.922 11.3584C155.474 11.3584 155.103 11.513 154.81 11.822C154.516 12.1311 154.369 12.5034 154.369 12.9389C154.369 13.3885 154.516 13.7678 154.81 14.0769Z" fill="black"/>
<path fill-rule="evenodd" clip-rule="evenodd" d="M161.106 25.8568C161.932 26.3204 162.855 26.5522 163.876 26.5522C164.897 26.5522 165.814 26.3204 166.625 25.8568C167.451 25.3791 168.101 24.7399 168.577 23.9391C169.053 23.1243 169.29 22.2181 169.29 21.2207C169.29 20.2232 169.053 19.3311 168.577 18.5444C168.101 17.7436 167.451 17.1114 166.625 16.6478C165.814 16.1701 164.89 15.9313 163.855 15.9313C162.848 15.9313 161.932 16.1701 161.106 16.6478C160.281 17.1114 159.63 17.7436 159.154 18.5444C158.679 19.3311 158.441 20.2232 158.441 21.2207C158.441 22.2181 158.679 23.1243 159.154 23.9391C159.644 24.7399 160.295 25.3791 161.106 25.8568ZM165.219 23.6441C164.828 23.8689 164.373 23.9813 163.855 23.9813C163.352 23.9813 162.904 23.8689 162.512 23.6441C162.12 23.4053 161.813 23.0821 161.589 22.6747C161.365 22.2533 161.253 21.7756 161.253 21.2418C161.253 20.7079 161.365 20.2373 161.589 19.8299C161.813 19.4224 162.12 19.1063 162.512 18.8816C162.904 18.6427 163.352 18.5233 163.855 18.5233C164.373 18.5233 164.828 18.6427 165.219 18.8816C165.611 19.1063 165.919 19.4224 166.143 19.8299C166.366 20.2373 166.478 20.7079 166.478 21.2418C166.478 21.7756 166.366 22.2533 166.143 22.6747C165.933 23.0821 165.625 23.4053 165.219 23.6441Z" fill="black"/>
<path d="M177.251 20.5042V26.3415H180V19.8931C180 19.2047 179.832 18.5655 179.496 17.9754C179.161 17.3713 178.699 16.8866 178.111 16.5214C177.524 16.142 176.859 15.9524 176.118 15.9524C175.348 15.9524 174.656 16.121 174.04 16.4581C173.717 16.6393 173.43 16.8589 173.18 17.117V16.1631H170.431V26.3415H173.18V20.5042C173.18 20.0968 173.264 19.7385 173.432 19.4295C173.613 19.1204 173.858 18.8816 174.166 18.713C174.474 18.5444 174.824 18.4601 175.215 18.4601C175.817 18.4601 176.307 18.6498 176.684 19.0291C177.062 19.4084 177.251 19.9001 177.251 20.5042Z" fill="black"/>
</g>
</g>
</g>
<defs>
<clipPath id="clip0_0_1">
<rect width="375" height="8693" fill="white" transform="translate(-20 -30)"/>
</clipPath>
</defs>
</svg>
