<svg width="188" height="29" viewBox="0 0 188 29" fill="none" xmlns="http://www.w3.org/2000/svg">
<g clip-path="url(#clip0_74_11)">
<path fill-rule="evenodd" clip-rule="evenodd" d="M26.49 28.1603H34.73V0.530273H26.49V28.1603Z" fill="black"/>
<path fill-rule="evenodd" clip-rule="evenodd" d="M41.3 28.1603H62.63V22.6703H49.54V17.0103H61.02V11.6803H49.54V6.02027H62.63V0.530273H41.3V28.1603Z" fill="black"/>
<path fill-rule="evenodd" clip-rule="evenodd" d="M85.18 16.9303L77.91 0.530273H67.16V28.1603H73.79V11.6803L81.06 28.1603H86.47L94.31 11.2803V28.1603H102.55V0.530273H92.78L85.18 16.9303Z" fill="black"/>
<path fill-rule="evenodd" clip-rule="evenodd" d="M154.91 17.5003L144.57 0.530273H135.52V28.1603H141.33V11.1103L151.76 28.1603H160.73V0.530273H154.91V17.5003Z" fill="black"/>
<path fill-rule="evenodd" clip-rule="evenodd" d="M109.03 28.1603H130.36V22.6703H117.27V17.0103H128.75V11.6803H117.27V6.02027H130.36V0.530273H109.03V28.1603Z" fill="black"/>
<path fill-rule="evenodd" clip-rule="evenodd" d="M17.6 13.2202C15.26 12.1602 11.6 10.3102 9.11999 9.22023C6.63999 8.13023 6.68999 2.55023 20.27 6.67023V1.42023C17.44 0.420226 9.67999 -1.40977 3.86999 1.82023C-1.94001 5.05023 -0.580008 13.0502 3.86999 15.7202C5.79999 16.7202 8.46999 17.7202 11.87 19.1902C14.68 20.4002 16.39 26.5502 0.309992 22.3502V27.7602C3.61999 28.9702 15.74 30.2702 19.31 26.3102C23.75 21.3602 21.73 14.9102 17.61 13.2202H17.6Z" fill="black"/>
<path fill-rule="evenodd" clip-rule="evenodd" d="M182.91 13.2202C180.56 12.1602 176.91 10.3102 174.42 9.22023C172.07 8.15023 172 2.59023 185.57 6.71023V1.42023C182.74 0.420226 174.99 -1.40977 169.17 1.82023C163.35 5.05023 164.73 13.0502 169.17 15.7202C171.11 16.7202 173.78 17.7202 177.17 19.1902C179.98 20.4002 181.69 26.5502 165.61 22.3502V27.7602C168.93 28.9702 181.05 30.2702 184.61 26.3102C189.05 21.3602 187.04 14.9102 182.92 13.2202H182.91Z" fill="black"/>
</g>
<defs>
<clipPath id="clip0_74_11">
<rect width="187.11" height="28.97" fill="white"/>
</clipPath>
</defs>
</svg>
