<svg width="133" height="18" viewBox="0 0 133 18" fill="none" xmlns="http://www.w3.org/2000/svg">
<path fill-rule="evenodd" clip-rule="evenodd" d="M35.449 10.6001C29.735 12.2268 23.1379 13.8456 16.7914 14.2498C11.367 14.5948 6.12749 14.0589 1.83888 11.779C1.23433 11.458 0.477284 11.6787 0.150343 12.2728C-0.177097 12.8664 0.0481716 13.6097 0.652714 13.9312C5.33106 16.4177 11.0356 17.068 16.9524 16.6912C23.413 16.2802 30.1293 14.6506 35.9579 13.0004C36.6342 14.3457 38.0347 15.5999 40.5017 16.5253C44.2909 17.9469 49.4646 17.9293 54.915 17.1282C62.8199 15.9669 71.3234 13.1977 76.7906 11.2299C77.0149 11.1497 77.3488 11.022 77.7575 10.8536C77.8821 11.1238 78.0217 11.39 78.1761 11.6513C79.5168 13.9288 81.8892 15.7702 84.3063 16.4279C99.6367 20.5983 117.529 15.6014 132.097 11.5348C132.754 11.3503 133.138 10.6731 132.954 10.0237C132.764 9.3743 132.077 8.997 131.414 9.18149C117.255 13.1345 99.8709 18.1221 84.9692 14.0697C83.1351 13.5705 81.3509 12.1553 80.3342 10.4269C80.2195 10.2341 80.1199 10.0369 80.0252 9.83674C82.0337 8.85949 84.396 7.49712 85.6669 6.03882C86.9727 4.54383 87.2966 2.94803 86.1603 1.4408C85.1835 0.152313 83.7033 0.0426937 82.1632 0.71067C80.5036 1.42611 78.7942 3.09872 78.2409 3.88366C77.2043 5.34978 76.8754 6.94022 77.0648 8.491C76.5763 8.69359 76.1796 8.84431 75.9349 8.93239C70.5872 10.8566 62.2757 13.5725 54.5462 14.7083C49.5728 15.4394 44.8486 15.5368 41.3908 14.24C39.9161 13.6865 38.9417 13.0406 38.4129 12.2909C39.4565 11.9845 40.4628 11.6831 41.4242 11.3954C43.3255 10.8262 47.2842 9.88422 50.1125 8.20522C52.3618 6.87025 53.8868 5.05423 53.7981 2.77773C53.7528 1.60816 53.0635 0.827613 51.9665 0.390125C50.3273 -0.263171 47.4925 0.0529492 46.4369 0.273161C43.2353 0.93967 38.9622 3.6987 36.848 6.8076C36.0042 8.04813 35.5024 9.34591 35.449 10.6001ZM38.079 9.83575C38.9836 9.56856 39.8578 9.30626 40.6975 9.05473C42.4723 8.52329 46.1823 7.67913 48.8232 6.11122C50.2217 5.28127 51.3635 4.2869 51.3082 2.87118C51.3037 2.76108 51.1925 2.72977 51.0943 2.68475C50.9423 2.61575 50.7684 2.56827 50.583 2.53108C49.3286 2.27954 47.6435 2.52275 46.9538 2.66662C44.2675 3.22596 40.694 5.55776 38.9203 8.16654C38.5455 8.71756 38.247 9.27886 38.079 9.83575ZM79.5268 7.36449C80.698 6.77286 81.924 6.0574 82.8909 5.27883C83.4042 4.86532 83.8378 4.44008 84.1119 3.99868C84.3412 3.63362 84.4309 3.25972 84.1568 2.89857C84.0471 2.75225 83.8827 2.74934 83.7132 2.77674C83.5338 2.8061 83.3494 2.86872 83.165 2.94947C81.9489 3.47504 80.693 4.70285 80.2893 5.27883C79.8159 5.9468 79.5816 6.65345 79.5268 7.36449Z" fill="#FFC31F"/>
</svg>
